<svg xmlns="http://www.w3.org/2000/svg" width="88" height="54" viewBox="0 0 88 54">
  <g fill="none" fill-rule="evenodd" transform="translate(-1 -1)">
    <path fill="#000" fill-rule="nonzero" d="M44.75,1 C44.5892571,1.02249364 44.4318496,1.06446896 44.28125,1.125 L2.28125,17.125 C1.49755229,17.4161359 0.977594325,18.1639724 0.977594325,19 C0.977594325,19.8360276 1.49755229,20.5838641 2.28125,20.875 L17,26.46875 L17,44 C17,46.040838 18.157397,47.801111 19.75,49.125 C21.342603,50.448889 23.438175,51.492082 25.9375,52.34375 C30.936149,54.047087 37.59937,55 45,55 C52.40063,55 59.063851,54.047087 64.0625,52.34375 C66.561825,51.492082 68.657397,50.448889 70.25,49.125 C71.842603,47.801111 73,46.040838 73,44 L73,26.46875 L87.71875,20.875 C88.5024477,20.5838641 89.0224057,19.8360276 89.0224057,19 C89.0224057,18.1639724 88.5024477,17.4161359 87.71875,17.125 L45.71875,1.125 C45.4692539,1.03173078 45.2036419,0.989232868 44.9375,1 C44.8750344,0.997068994 44.8124656,0.997068994 44.75,1 Z M45,5.15625 L81.375,19 L45,32.84375 L8.625,19 L45,5.15625 Z M21,28 L44.28125,36.875 C44.7438613,37.0531323 45.2561387,37.0531323 45.71875,36.875 L69,28 L69,44 C69,44.561592 68.711912,45.210933 67.6875,46.0625 C66.663088,46.914067 64.975538,47.814776 62.78125,48.5625 C58.392674,50.057948 52.05047,51 45,51 C37.94953,51 31.607326,50.057948 27.21875,48.5625 C25.024462,47.814776 23.336912,46.914067 22.3125,46.0625 C21.288088,45.210933 21,44.561592 21,44 L21,28 Z"/>
    <path stroke="#000" stroke-linecap="square" stroke-width="3" d="M84.5,20.5 L84.5,40.5"/>
  </g>
</svg>
