<svg xmlns="http://www.w3.org/2000/svg" xmlns:xlink="http://www.w3.org/1999/xlink" width="722" height="230" viewBox="0 0 722 230">
  <defs>
    <rect id="hesam-logo-optim-a" width="722" height="230"/>
    <rect id="hesam-logo-optim-c" width="721.5" height="229.5" x=".1" y=".5"/>
    <rect id="hesam-logo-optim-e" width="721.5" height="229.5" x=".1" y=".5"/>
    <rect id="hesam-logo-optim-g" width="721.5" height="229.5" x=".1" y=".5"/>
    <rect id="hesam-logo-optim-i" width="721.5" height="229.5" x=".1" y=".5"/>
    <rect id="hesam-logo-optim-k" width="721.5" height="229.5" x=".1" y=".5"/>
    <rect id="hesam-logo-optim-m" width="722" height="230"/>
    <rect id="hesam-logo-optim-o" width="722" height="230"/>
    <rect id="hesam-logo-optim-q" width="722" height="230"/>
    <rect id="hesam-logo-optim-s" width="722" height="230"/>
    <rect id="hesam-logo-optim-u" width="722" height="230"/>
    <rect id="hesam-logo-optim-w" width="722" height="230"/>
    <rect id="hesam-logo-optim-y" width="722" height="230"/>
    <rect id="hesam-logo-optim-A" width="722" height="230"/>
    <rect id="hesam-logo-optim-C" width="722" height="230"/>
  </defs>
  <g fill="none" fill-rule="evenodd">
    <mask id="hesam-logo-optim-b" fill="#fff">
      <use xlink:href="#hesam-logo-optim-a"/>
    </mask>
    <path fill="#DF1E35" fill-rule="nonzero" d="M62.9,97.8 C59.5,97.8 56.7,95 56.7,91.6 L56.7,56 L13.5,56 L13.5,91.6 C13.5,95 10.7,97.8 7.3,97.8 C3.9,97.8 1.1,95 1.1,91.6 L1.1,8 C1.1,4.6 3.6,1.8 7.3,1.8 C11,1.8 13.5,4.6 13.5,8 L13.5,43.6 L56.7,43.6 L56.7,8 C56.7,4.6 59.2,1.8 62.9,1.8 C66.6,1.8 69.1,4.6 69.1,8 L69.1,91.6 C69.1,95 66.3,97.8 62.9,97.8" mask="url(#hesam-logo-optim-b)"/>
    <g>
      <mask id="hesam-logo-optim-d" fill="#fff">
        <use xlink:href="#hesam-logo-optim-c"/>
      </mask>
      <path fill="#DF1E35" fill-rule="nonzero" d="M105.7,85.4 L141.2,85.4 C144.6,85.4 147.4,88.2 147.4,91.6 C147.4,95 144.6,97.8 141.2,97.8 L99.5,97.8 C96.1,97.8 93.3,95.3 93.3,91.6 L93.3,8 C93.3,4.6 95.8,1.8 99.5,1.8 L141.2,1.8 C144.6,1.8 147.4,4.6 147.4,8 C147.4,11.4 144.6,14.2 141.2,14.2 L105.7,14.2 L105.7,43.6 L127.3,43.6 C131,43.6 133.5,46.4 133.5,49.8 C133.5,53.5 130.7,56 127.3,56 L105.7,56 L105.7,85.4" mask="url(#hesam-logo-optim-d)"/>
      <mask id="hesam-logo-optim-f" fill="#fff">
        <use xlink:href="#hesam-logo-optim-e"/>
      </mask>
      <path fill="#DF1E35" fill-rule="nonzero" d="M196,58.4 L176.8,49 C166.1,43.1 159.6,36 159.6,24.7 C159.6,9.6 171.4,0.5 186.8,0.5 C195.9,0.5 204,3.8 209.6,7.7 C211.3,8.9 212.2,10.8 212.2,12.8 C212.2,16.2 209.4,19 206,19 C202,19 198.1,12.9 186.7,12.9 C180.1,12.9 171.9,15.3 171.9,24.7 C171.9,30 174.2,33.5 182.4,38 L201.3,47.3 C207.3,50.2 219.2,57.8 219.2,73.6 C219.2,88.3 206.4,99.1 192,99.1 C181.5,99.1 170.7,97 162,89 C160.7,87.8 160,86.1 160,84.4 C160,81.1 162.7,78.2 166.2,78.2 C171.7,78.2 172.7,86.7 192.1,86.7 C200.5,86.7 206.9,80.6 206.9,73.6 C207,67.5 204.1,62.4 196,58.4" mask="url(#hesam-logo-optim-f)"/>
      <g>
        <mask id="hesam-logo-optim-h" fill="#fff">
          <use xlink:href="#hesam-logo-optim-g"/>
        </mask>
        <path fill="#DF1E35" fill-rule="nonzero" d="M287.5,67.8 L247,67.8 L245.6,92 C245.4,95.3 242.7,97.8 239.4,97.8 C235.7,97.8 233.2,94.9 233.2,91.6 C233.2,91.5 233.2,91.3 233.2,91.2 L235.4,52.9 C236.3,36.7 245.4,19.1 249.5,13 L253,7.8 C257.2,1.6 262.4,0.5 267.1,0.5 C271.8,0.5 277,1.5 281.2,7.8 L284.7,13 C288.9,19.2 297.9,36.7 298.8,52.9 L301,91.2 C301,91.2 301,91.5 301,91.6 C301,94.9 298.4,97.8 294.8,97.8 C291.5,97.8 288.8,95.3 288.6,92 L287.5,67.8 L287.5,67.8 Z M247.8,54.5 L247.7,55.4 L286.8,55.4 L286.7,54.5 C285.6,38.3 277,23.4 274.6,19.9 L271.1,14.7 C269.9,12.9 269.1,12.9 267.7,12.9 L267.2,12.9 L266.8,12.9 C265.4,12.9 264.5,13 263.3,14.7 L259.8,19.9 C257.5,23.4 248.9,38.3 247.8,54.5 Z" mask="url(#hesam-logo-optim-h)"/>
      </g>
      <g>
        <mask id="hesam-logo-optim-j" fill="#fff">
          <use xlink:href="#hesam-logo-optim-i"/>
        </mask>
        <path fill="#DF1E35" fill-rule="nonzero" d="M392.9,97.8 C389.5,97.8 386.7,95 386.7,91.6 L386.7,18.8 L385.3,20.4 C382,24.1 378.3,31.2 365.8,59.6 C365.1,61.1 363.6,63.3 360.4,63.3 C357.2,63.3 355.7,61.1 355,59.6 C342.5,31 338.6,23.8 335.5,20.3 L334.1,18.7 L334.1,91.5 C334.1,94.9 331.3,97.7 327.9,97.7 C324.5,97.7 321.7,94.9 321.7,91.5 L321.7,8 C321.7,4.3 324.5,1.8 328,1.8 C331.2,1.8 341.9,7.1 345.6,11.9 C347.7,14.7 353.5,27.1 359.8,41 L360.5,42.6 L361.2,41 C369.7,22.2 373.6,14.2 375.4,12 C379.6,6.8 389.8,1.9 393,1.9 C396.5,1.9 399.3,4.4 399.3,8.1 L399.3,91.7 C399.1,95 396.3,97.8 392.9,97.8" mask="url(#hesam-logo-optim-j)"/>
      </g>
      <g>
        <mask id="hesam-logo-optim-l" fill="#fff">
          <use xlink:href="#hesam-logo-optim-k"/>
        </mask>
        <path fill="#121617" fill-rule="nonzero" d="M65,198.4 C65,220.1 47.8,230 32.5,230 C17.1,230 0,220 0,198.4 L0,138.9 C0,135.5 2.8,132.7 6.2,132.7 C9.6,132.7 12.4,135.5 12.4,138.9 L12.4,198.4 C12.4,213 24.2,217.6 32.5,217.6 C40.9,217.6 52.6,213 52.6,198.4 L52.6,138.9 C52.6,135.5 55.4,132.7 58.8,132.7 C62.2,132.7 65,135.5 65,138.9 L65,198.4" mask="url(#hesam-logo-optim-l)"/>
      </g>
    </g>
    <g>
      <mask id="hesam-logo-optim-n" fill="#fff">
        <use xlink:href="#hesam-logo-optim-m"/>
      </mask>
      <path fill="#121617" fill-rule="nonzero" d="M104.6,159.5 L100.5,151.7 L100.5,222.6 C100.5,226 97.7,228.8 94.3,228.8 C90.9,228.8 88.1,226 88.1,222.6 L88.1,139 C88.1,135.3 91.2,132.8 94.3,132.8 C97.5,132.8 107.5,138 110.6,144.3 L139.9,202.9 L143.6,210 L143.6,139.1 C143.6,135.7 146.4,132.9 149.8,132.9 C153.2,132.9 156,135.7 156,139.1 L156,222.7 C156,227.7 151.4,228.9 149.8,228.9 C146.6,228.9 136.6,223.7 133.5,217.4 L104.6,159.5" mask="url(#hesam-logo-optim-n)"/>
      <mask id="hesam-logo-optim-p" fill="#fff">
        <use xlink:href="#hesam-logo-optim-o"/>
      </mask>
      <path fill="#121617" fill-rule="nonzero" d="M173.5,222.6 C173.5,219.2 176.3,216.4 179.7,216.4 L187.4,216.4 L187.4,145.2 L179.7,145.2 C176,145.2 173.5,142.4 173.5,139 C173.5,135.6 176,132.8 179.7,132.8 L207.5,132.8 C210.9,132.8 213.7,135.6 213.7,139 C213.7,142.4 210.9,145.2 207.5,145.2 L199.8,145.2 L199.8,216.4 L207.5,216.4 C210.9,216.4 213.7,218.9 213.7,222.6 C213.7,226 211.2,228.8 207.5,228.8 L179.7,228.8 C176.3,228.7 173.5,226 173.5,222.6" mask="url(#hesam-logo-optim-p)"/>
      <mask id="hesam-logo-optim-r" fill="#fff">
        <use xlink:href="#hesam-logo-optim-q"/>
      </mask>
      <path fill="#121617" fill-rule="nonzero" d="M296.3,150.6 C296.3,175.6 294.1,195.3 281.5,209.5 L266.2,226.7 C265,228.1 263.4,228.8 261.6,228.8 C259.7,228.8 258.2,228.1 257,226.7 L241.7,209.5 C228.8,195 226.9,174.8 226.9,150.6 C226.9,143.6 227.1,138.7 227.1,138.6 C227.3,135.3 230,132.7 233.3,132.7 C236.8,132.7 239.5,135.5 239.5,138.9 C239.5,140.1 239.3,143.6 239.3,150.6 C239.3,184.4 244.9,194.4 251,201.3 L261.7,213.3 L272.4,201.3 C278.5,194.4 284.1,184.4 284.1,150.6 C284.1,143.6 283.9,140.1 283.9,138.9 C283.9,135.6 286.6,132.7 290.1,132.7 C293.4,132.7 296.1,135.3 296.3,138.6 C296.1,138.7 296.3,143.6 296.3,150.6" mask="url(#hesam-logo-optim-r)"/>
      <g>
        <mask id="hesam-logo-optim-t" fill="#fff">
          <use xlink:href="#hesam-logo-optim-s"/>
        </mask>
        <path fill="#121617" fill-rule="nonzero" d="M328.3,216.4 L363.8,216.4 C367.2,216.4 370,219.2 370,222.6 C370,226 367.2,228.8 363.8,228.8 L322.1,228.8 C318.7,228.8 315.9,226.3 315.9,222.6 L315.9,139 C315.9,135.6 318.4,132.8 322.1,132.8 L363.8,132.8 C367.2,132.8 370,135.6 370,139 C370,142.4 367.2,145.2 363.8,145.2 L328.3,145.2 L328.3,174.6 L349.9,174.6 C353.6,174.6 356.1,177.4 356.1,180.8 C356.1,184.5 353.3,187 349.9,187 L328.3,187 L328.3,216.4" mask="url(#hesam-logo-optim-t)"/>
      </g>
      <g>
        <mask id="hesam-logo-optim-v" fill="#fff">
          <use xlink:href="#hesam-logo-optim-u"/>
        </mask>
        <path fill="#121617" fill-rule="nonzero" d="M422.8,194.3 L422.3,194.3 C422.1,194.3 421.9,194.3 421.8,194.3 L400.7,194.3 L400.7,222.5 C400.7,225.9 397.9,228.7 394.5,228.7 C391.1,228.7 388.3,225.9 388.3,222.5 L388.3,138.9 C388.3,135.5 390.8,132.7 394.5,132.7 L419.3,132.7 C432,132.7 448.1,138.7 448.1,162.5 C448.1,175.9 444.1,185.5 435.7,190.5 L435,190.9 L451,219.6 C451.5,220.6 451.8,221.6 451.8,222.6 C451.8,225.7 449.2,228.8 445.6,228.8 C443.4,228.8 441.3,227.7 440.2,225.6 L422.8,194.3 L422.8,194.3 Z M400.6,181.9 L421.7,181.9 C430.1,181.9 435.6,177.2 435.6,162.5 C435.6,148.6 428.4,145.1 419.2,145.1 L400.5,145.1 L400.5,181.9 L400.6,181.9 Z" mask="url(#hesam-logo-optim-v)"/>
      </g>
      <g>
        <mask id="hesam-logo-optim-x" fill="#fff">
          <use xlink:href="#hesam-logo-optim-w"/>
        </mask>
        <path fill="#121617" fill-rule="nonzero" d="M498.7,189.4 L479.5,180 C468.8,174.1 462.3,167 462.3,155.7 C462.3,140.6 474.1,131.5 489.5,131.5 C498.6,131.5 506.7,134.8 512.3,138.7 C514,139.9 514.9,141.8 514.9,143.8 C514.9,147.2 512.1,150 508.7,150 C504.7,150 500.8,143.9 489.4,143.9 C482.8,143.9 474.6,146.3 474.6,155.7 C474.6,161 476.9,164.5 485.1,169 L504,178.3 C510,181.2 521.9,188.8 521.9,204.6 C521.9,219.3 509.1,230.1 494.7,230.1 C484.2,230.1 473.4,228 464.7,220 C463.4,218.8 462.7,217.1 462.7,215.4 C462.7,212.1 465.4,209.2 468.9,209.2 C474.4,209.2 475.4,217.7 494.8,217.7 C503.2,217.7 509.6,211.6 509.6,204.6 C509.7,198.5 506.7,193.3 498.7,189.4" mask="url(#hesam-logo-optim-x)"/>
      </g>
      <g>
        <mask id="hesam-logo-optim-z" fill="#fff">
          <use xlink:href="#hesam-logo-optim-y"/>
        </mask>
        <path fill="#121617" fill-rule="nonzero" d="M533.1,222.6 C533.1,219.2 535.9,216.4 539.3,216.4 L547,216.4 L547,145.2 L539.3,145.2 C535.6,145.2 533.1,142.4 533.1,139 C533.1,135.6 535.6,132.8 539.3,132.8 L567,132.8 C570.4,132.8 573.2,135.6 573.2,139 C573.2,142.4 570.4,145.2 567,145.2 L559.3,145.2 L559.3,216.4 L567,216.4 C570.4,216.4 573.2,218.9 573.2,222.6 C573.2,226 570.7,228.8 567,228.8 L539.2,228.8 C535.8,228.7 533.1,226 533.1,222.6" mask="url(#hesam-logo-optim-z)"/>
      </g>
      <g>
        <mask id="hesam-logo-optim-B" fill="#fff">
          <use xlink:href="#hesam-logo-optim-A"/>
        </mask>
        <path fill="#121617" fill-rule="nonzero" d="M591,145.1 C587.3,145.1 584.8,142.3 584.8,138.9 C584.8,135.5 587.3,132.7 591,132.7 L646.6,132.7 C650,132.7 652.8,135.5 652.8,138.9 C652.8,142.3 650,145.1 646.6,145.1 L625,145.1 L625,222.5 C625,225.9 622.2,228.7 618.8,228.7 C615.4,228.7 612.6,225.9 612.6,222.5 L612.6,145.1 L591,145.1" mask="url(#hesam-logo-optim-B)"/>
      </g>
      <g>
        <mask id="hesam-logo-optim-D" fill="#fff">
          <use xlink:href="#hesam-logo-optim-C"/>
        </mask>
        <path fill="#121617" fill-rule="nonzero" d="M679.9,216.4 L715.4,216.4 C718.8,216.4 721.6,219.2 721.6,222.6 C721.6,226 718.8,228.8 715.4,228.8 L673.7,228.8 C670.3,228.8 667.5,226.3 667.5,222.6 L667.5,139 C667.5,135.6 670,132.8 673.7,132.8 L715.4,132.8 C718.8,132.8 721.6,135.6 721.6,139 C721.6,142.4 718.8,145.2 715.4,145.2 L679.9,145.2 L679.9,174.6 L701.5,174.6 C705.2,174.6 707.7,177.4 707.7,180.8 C707.7,184.5 704.9,187 701.5,187 L679.9,187 L679.9,216.4 L679.9,216.4 Z M691.3,124.7 C690.2,125.8 688.7,126.4 687.2,126.4 C683.2,126.4 681.5,122.9 681.5,120.7 C681.5,119.2 682.1,117.8 683.2,116.6 L699.4,100.4 C700.5,99.3 702,98.7 703.5,98.7 C707.5,98.7 709.2,102.2 709.2,104.4 C709.2,105.9 708.6,107.3 707.5,108.5 L691.3,124.7 Z" mask="url(#hesam-logo-optim-D)"/>
      </g>
    </g>
  </g>
</svg>
