<svg xmlns="http://www.w3.org/2000/svg" width="40" height="60" viewBox="0 0 40 60">
  <path fill="#0ac0a8" stroke="0ac0a8" d="M20.006,19.282 C20.201,19.477 20.457,19.575 20.713,19.575 C20.969,19.575 21.225,19.477 21.42,19.282 C21.811,18.891 21.811,18.259 21.42,17.868 L12.951,9.4 C12.56,9.009 11.928,9.009 11.537,9.4 C11.146,9.791 11.146,10.423 11.537,10.814 L20.006,19.282 Z M39.316,58.099 L38.285,54.368 C38.271,54.32 38.254,54.272 38.234,54.226 C38.058,53.833 37.394,52.55 36.236,52.55 L26.193,52.55 L25.691,50.466 C33.437,47.952 38.857,40.671 38.961,32.479 C38.965,32.072 38.725,31.703 38.35,31.544 C37.973,31.387 37.541,31.471 37.254,31.759 L36.471,32.542 L33.735,29.703 L37.866,25.571 C38.257,25.18 38.257,24.548 37.866,24.157 C37.475,23.766 36.843,23.766 36.452,24.157 L31.641,28.968 C31.641,28.969 31.639,28.969 31.639,28.97 C31.637,28.971 31.637,28.972 31.637,28.973 L29.129,31.481 C29.127,31.482 29.127,31.482 29.125,31.483 C29.125,31.484 29.125,31.485 29.123,31.486 L25.891,34.718 L24.264,33.3 C23.848,32.939 23.215,32.981 22.852,33.397 C22.489,33.814 22.534,34.446 22.95,34.808 L25.282,36.839 C25.471,37.004 25.706,37.085 25.938,37.085 C26.196,37.085 26.452,36.986 26.645,36.792 L29.791,33.646 L32.496,36.515 L31.717,37.295 C31.633,37.379 31.565,37.478 31.516,37.585 C30.067,40.744 27.432,43.151 24.217,44.33 L24.213,44.315 C24.104,43.866 23.701,43.549 23.24,43.549 L16.74,43.549 C16.279,43.549 15.877,43.865 15.767,44.315 L15.73,44.467 C10.492,42.728 6.906,37.829 6.906,32.237 C6.906,29.417 7.879,26.656 9.64,24.378 C10.165,24.554 10.718,24.672 11.302,24.672 C12.972,24.672 14.447,23.877 15.413,22.662 L18.013,25.261 C18.201,25.449 18.456,25.554 18.72,25.554 C18.986,25.554 19.24,25.449 19.427,25.261 L19.716,24.972 L21.003,26.261 C21.325,26.58 21.753,26.756 22.206,26.756 C22.659,26.756 23.087,26.579 23.411,26.257 L26.401,23.268 C27.063,22.604 27.063,21.523 26.399,20.858 L25.114,19.572 L25.403,19.283 C25.794,18.892 25.794,18.26 25.403,17.869 L12.951,5.415 C12.763,5.227 12.51,5.122 12.244,5.122 C11.978,5.122 11.724,5.227 11.537,5.415 L11.248,5.704 L6.475,0.929 C5.832,0.289 4.711,0.288 4.065,0.932 L1.075,3.922 C0.755,4.244 0.577,4.672 0.577,5.127 C0.579,5.582 0.757,6.01 1.077,6.33 L5.85,11.103 L5.561,11.392 C5.17,11.783 5.17,12.415 5.561,12.806 L8.034,15.281 C6.944,16.149 6.216,17.429 6.075,18.893 C2.616,22.468 0.628,27.305 0.628,32.237 C0.628,40.72 6.2,48.142 14.263,50.578 L13.788,52.55 L3.742,52.55 C2.586,52.55 1.922,53.833 1.746,54.226 C1.726,54.272 1.709,54.32 1.695,54.368 L0.613,58.284 C0.529,58.585 0.592,58.908 0.781,59.156 C0.97,59.405 1.263,59.551 1.576,59.551 L38.404,59.551 C38.412,59.552 38.418,59.552 38.424,59.551 C38.977,59.551 39.424,59.104 39.424,58.551 C39.424,58.388 39.385,58.234 39.316,58.099 Z M31.207,32.23 L32.32,31.117 L35.056,33.956 L33.912,35.1 L31.207,32.23 Z M33.256,38.584 L36.715,35.126 C35.651,41.289 31.231,46.511 25.225,48.521 L24.686,46.284 C28.443,44.971 31.535,42.22 33.256,38.584 Z M17.529,45.55 L22.451,45.55 L24.137,52.55 L15.844,52.55 L17.529,45.55 Z M23.701,20.985 L24.777,22.062 L22.207,24.634 L21.131,23.557 L23.412,21.275 L23.701,20.985 Z M2.699,5.125 L5.271,2.554 L9.834,7.118 L7.264,9.689 L2.699,5.125 Z M7.682,12.1 L12.245,7.537 L23.284,18.576 L21.763,20.097 L19.01,22.85 C19.008,22.852 19.008,22.854 19.006,22.855 L18.721,23.14 L16.371,20.79 C16.494,20.342 16.582,19.88 16.582,19.394 C16.582,16.483 14.213,14.115 11.303,14.115 C10.817,14.115 10.354,14.203 9.907,14.326 L7.682,12.1 Z M8.031,19.326 C8.068,17.55 9.517,16.114 11.302,16.114 C13.111,16.114 14.581,17.585 14.581,19.393 C14.581,21.201 13.11,22.671 11.302,22.671 C10.757,22.671 10.251,22.525 9.798,22.289 C9.794,22.287 9.792,22.282 9.788,22.28 C9.405,22.078 9.075,21.808 8.806,21.493 C8.779,21.462 8.753,21.43 8.726,21.397 C8.656,21.306 8.587,21.213 8.525,21.116 C8.453,20.999 8.384,20.877 8.326,20.75 C8.293,20.679 8.267,20.605 8.24,20.531 C8.193,20.407 8.152,20.281 8.121,20.151 C8.107,20.094 8.094,20.039 8.084,19.982 C8.049,19.795 8.027,19.605 8.025,19.41 C8.027,19.381 8.031,19.35 8.031,19.326 Z M2.627,32.237 C2.627,28.346 4.002,24.515 6.449,21.466 C6.459,21.486 6.472,21.503 6.48,21.523 C6.584,21.752 6.707,21.972 6.839,22.185 C6.896,22.273 6.948,22.36 7.009,22.444 C7.15,22.638 7.302,22.824 7.466,22.999 C7.564,23.102 7.665,23.194 7.771,23.289 C7.804,23.32 7.834,23.354 7.869,23.384 C5.951,25.966 4.906,29.071 4.906,32.238 C4.906,38.756 9.123,44.453 15.263,46.414 L14.728,48.632 C7.566,46.416 2.627,39.798 2.627,32.237 Z M2.891,57.55 L3.6,54.984 C3.676,54.836 3.799,54.646 3.891,54.55 L36.09,54.55 C36.178,54.642 36.299,54.823 36.381,54.985 L37.09,57.55 L2.891,57.55 Z M20.076,47.55 C19.25,47.55 18.576,48.223 18.576,49.05 C18.576,49.877 19.25,50.55 20.076,50.55 C20.904,50.55 21.576,49.877 21.576,49.05 C21.576,48.223 20.904,47.55 20.076,47.55 Z M20.076,49.55 C19.801,49.55 19.576,49.325 19.576,49.05 C19.576,48.775 19.801,48.55 20.076,48.55 C20.351,48.55 20.576,48.775 20.576,49.05 C20.576,49.325 20.352,49.55 20.076,49.55 Z"/>
</svg>
